<svg width="16" height="22" viewBox="0 0 16 22" fill="none" xmlns="http://www.w3.org/2000/svg">
<circle cx="8" cy="8" r="8" fill="#EFA00B"/>
<g filter="url(#filter0_d_335_10293)">
<path d="M7.10481 9.464L6.88081 1.8H9.07281L8.83281 9.464H7.10481ZM8.01681 13.112C7.63281 13.112 7.31815 12.9947 7.07281 12.76C6.83815 12.5253 6.72081 12.2427 6.72081 11.912C6.72081 11.5707 6.83815 11.2827 7.07281 11.048C7.31815 10.8133 7.63281 10.696 8.01681 10.696C8.37948 10.696 8.67815 10.8133 8.91281 11.048C9.15815 11.2827 9.28081 11.5707 9.28081 11.912C9.28081 12.2427 9.15815 12.5253 8.91281 12.76C8.67815 12.9947 8.37948 13.112 8.01681 13.112Z" fill="white"/>
</g>
<defs>
<filter id="filter0_d_335_10293" x="2.7207" y="1.8" width="10.5601" height="19.312" filterUnits="userSpaceOnUse" color-interpolation-filters="sRGB">
<feFlood flood-opacity="0" result="BackgroundImageFix"/>
<feColorMatrix in="SourceAlpha" type="matrix" values="0 0 0 0 0 0 0 0 0 0 0 0 0 0 0 0 0 0 127 0" result="hardAlpha"/>
<feOffset dy="4"/>
<feGaussianBlur stdDeviation="2"/>
<feComposite in2="hardAlpha" operator="out"/>
<feColorMatrix type="matrix" values="0 0 0 0 0 0 0 0 0 0 0 0 0 0 0 0 0 0 0.25 0"/>
<feBlend mode="normal" in2="BackgroundImageFix" result="effect1_dropShadow_335_10293"/>
<feBlend mode="normal" in="SourceGraphic" in2="effect1_dropShadow_335_10293" result="shape"/>
</filter>
</defs>
</svg>
